<svg width="217" height="97" viewBox="0 0 217 97" fill="none" xmlns="http://www.w3.org/2000/svg">
<path opacity="0.8" d="M29.752 96.728C25.1867 96.728 20.8987 95.8747 16.888 94.168C12.8773 92.4187 9.4 89.944 6.456 86.744C3.55467 83.544 1.44267 79.768 0.12 75.416L13.048 71.832C14.2853 75.8 16.44 78.8507 19.512 80.984C22.584 83.0747 25.9973 84.0987 29.752 84.056C33.1227 84.0133 36.088 83.224 38.648 81.688C41.208 80.152 43.2133 78.0827 44.664 75.48C46.1147 72.8347 46.84 69.8053 46.84 66.392C46.84 61.272 45.24 57.048 42.04 53.72C38.8827 50.392 34.744 48.728 29.624 48.728C28.1733 48.728 26.68 48.9413 25.144 49.368C23.6507 49.7947 22.2427 50.3493 20.92 51.032L14.648 40.472L47.16 11.736L48.568 15.576H3.768V2.84H59.192V15.576L32.184 41.56L32.056 37.208C37.8587 37.208 42.8933 38.5093 47.16 41.112C51.4267 43.672 54.712 47.1707 57.016 51.608C59.3627 56.0027 60.536 60.9307 60.536 66.392C60.536 72.28 59.1493 77.5067 56.376 82.072C53.6453 86.6373 49.9547 90.2213 45.304 92.824C40.696 95.4267 35.512 96.728 29.752 96.728ZM104.538 96.92C99.802 96.92 95.386 95.96 91.29 94.04C87.2367 92.0773 83.7593 89.3893 80.858 85.976C77.9567 82.52 75.8873 78.552 74.65 74.072L87.514 70.616C88.2393 73.3467 89.4767 75.7147 91.226 77.72C93.018 79.7253 95.1087 81.2827 97.498 82.392C99.8873 83.4587 102.362 83.992 104.922 83.992C108.293 83.992 111.343 83.1813 114.074 81.56C116.847 79.9387 119.023 77.7627 120.602 75.032C122.223 72.3013 123.034 69.2933 123.034 66.008C123.034 62.6373 122.202 59.5867 120.538 56.856C118.917 54.1253 116.719 51.9707 113.946 50.392C111.215 48.7707 108.207 47.96 104.922 47.96C101.167 47.96 97.9887 48.7067 95.386 50.2C92.7833 51.6933 90.7567 53.4213 89.306 55.384L77.658 51.288L80.474 2.84H130.202V15.448H87.322L92.762 10.392L90.522 46.68L87.898 43.288C90.33 40.856 93.2313 39 96.602 37.72C99.9727 36.44 103.322 35.8 106.65 35.8C112.367 35.8 117.466 37.1227 121.946 39.768C126.469 42.4133 130.031 46.0187 132.634 50.584C135.237 55.1067 136.538 60.248 136.538 66.008C136.538 71.7253 135.066 76.9307 132.122 81.624C129.178 86.2747 125.274 89.9867 120.41 92.76C115.546 95.5333 110.255 96.92 104.538 96.92ZM183.963 96.92C177.691 96.92 172.144 95.5547 167.323 92.824C162.502 90.0507 158.704 86.2533 155.931 81.432C153.2 76.6107 151.835 71.064 151.835 64.792V33.048C151.835 26.776 153.2 21.2293 155.931 16.408C158.704 11.5867 162.502 7.81066 167.323 5.07999C172.144 2.30666 177.691 0.919998 183.963 0.919998C190.235 0.919998 195.782 2.30666 200.603 5.07999C205.424 7.81066 209.2 11.5867 211.931 16.408C214.704 21.2293 216.091 26.776 216.091 33.048V64.792C216.091 71.064 214.704 76.6107 211.931 81.432C209.2 86.2533 205.424 90.0507 200.603 92.824C195.782 95.5547 190.235 96.92 183.963 96.92ZM183.963 84.12C187.376 84.12 190.47 83.3093 193.243 81.688C196.059 80.024 198.299 77.8053 199.963 75.032C201.627 72.216 202.459 69.08 202.459 65.624V32.088C202.459 28.6747 201.627 25.5813 199.963 22.808C198.299 19.992 196.059 17.7733 193.243 16.152C190.47 14.488 187.376 13.656 183.963 13.656C180.55 13.656 177.435 14.488 174.619 16.152C171.846 17.7733 169.627 19.992 167.963 22.808C166.299 25.5813 165.467 28.6747 165.467 32.088V65.624C165.467 69.08 166.299 72.216 167.963 75.032C169.627 77.8053 171.846 80.024 174.619 81.688C177.435 83.3093 180.55 84.12 183.963 84.12Z" fill="url(#paint0_linear_847_1468)"/>
<defs>
<linearGradient id="paint0_linear_847_1468" x1="70" y1="31" x2="-13.6374" y2="106.664" gradientUnits="userSpaceOnUse">
<stop stop-color="#D3CFAD"/>
<stop offset="1" stop-color="#ADFFC4" stop-opacity="0"/>
</linearGradient>
</defs>
</svg>
